<svg xmlns="http://www.w3.org/2000/svg" height="40" viewBox="0 -960 960 960" width="40"><path d="M446.667-402h66.666v-240h-66.666v240Zm33.666 153.333q14 0 23.5-9.833t9.5-23.833q0-14-9.583-23.5t-23.75-9.5q-13.667 0-23.5 9.583T446.667-282q0 13.667 9.833 23.5t23.833 9.833ZM313.333-80q-14.166 0-23.75-9.583Q280-99.167 280-113.333v-664.001q0-14.166 9.583-23.75 9.584-9.583 23.75-9.583H400V-880h160v69.333h86.667q14.166 0 23.75 9.583Q680-791.5 680-777.334v664.001q0 14.166-9.583 23.75Q660.833-80 646.667-80H313.333Z"/></svg>